<!DOCTYPE svg PUBLIC "-//W3C//DTD SVG 1.1//EN"
"http://www.w3.org/Graphics/SVG/1.1/DTD/svg11.dtd">
<svg xmlns="http://www.w3.org/2000/svg" xmlns:xlink="http://www.w3.org/1999/xlink" width="29.7002cm" height="21.0007cm" viewBox="0 0 11693 8268" font-family="Verdana, sans-serif" style="stroke-opacity:0.800000;fill-opacity:0.800000;"><rect fill="#FFFFFF" width="11693" height="8268" style="stroke-opacity:1.0;fill-opacity:1.0;"></rect><rect x="100" y="100" width="11493" height="8068" fill="none" stroke-width="5px" stroke="#000000"></rect><rect x="7593" y="8018" width="4000" height="150" fill="none" stroke-width="5px" stroke="#000000"></rect><rect x="7593" y="7918" width="4000" height="100" fill="none" stroke-width="5px" stroke="#000000"></rect><rect x="7593" y="7618" width="4000" height="400" fill="none" stroke-width="5px" stroke="#000000"></rect><text x="7693" y="7968" font-size="50.000000" text-anchor="start" transform="rotate(0 7693 7968)" fill="#000000">Page: 1 1</text><polyline points="4510, 3050 4510, 2850" stroke-width="10px" stroke="#000000"></polyline><polyline points="4510, 2850 4590, 2850" stroke-width="10px" stroke="#000000"></polyline><polyline points="4590, 2850 4590, 3050" stroke-width="10px" stroke="#000000"></polyline><polyline points="4590, 3050 4510, 3050" stroke-width="10px" stroke="#000000"></polyline><polyline points="4550, 2850 4550, 2800" stroke-width="10px" stroke="#000000"></polyline><polyline points="4550, 3050 4550, 3100" stroke-width="10px" stroke="#000000"></polyline><text x="4620" y="2995" font-size="50.000000" text-anchor="start" transform="rotate(0 4620 2995)" fill="#000000">R</text><text x="4620" y="2904" font-size="50.000000" text-anchor="start" transform="rotate(0 4620 2904)" fill="#000000">R?</text><polyline points="4860, 3050 4860, 2850" stroke-width="10px" stroke="#000000"></polyline><polyline points="4860, 2850 4940, 2850" stroke-width="10px" stroke="#000000"></polyline><polyline points="4940, 2850 4940, 3050" stroke-width="10px" stroke="#000000"></polyline><polyline points="4940, 3050 4860, 3050" stroke-width="10px" stroke="#000000"></polyline><polyline points="4900, 2850 4900, 2800" stroke-width="10px" stroke="#000000"></polyline><polyline points="4900, 3050 4900, 3100" stroke-width="10px" stroke="#000000"></polyline><text x="4970" y="2995" font-size="50.000000" text-anchor="start" transform="rotate(0 4970 2995)" fill="#000000">R</text><text x="4970" y="2904" font-size="50.000000" text-anchor="start" transform="rotate(0 4970 2904)" fill="#000000">R?</text><polyline points="4700, 3350 4700, 3400" stroke-width="10px" stroke="#000000"></polyline><polyline points="4700, 3400 4750, 3400" stroke-width="10px" stroke="#000000"></polyline><polyline points="4750, 3400 4700, 3450" stroke-width="10px" stroke="#000000"></polyline><polyline points="4700, 3450 4650, 3400" stroke-width="10px" stroke="#000000"></polyline><polyline points="4650, 3400 4700, 3400" stroke-width="10px" stroke="#000000"></polyline><text x="4705" y="3523" font-size="50.000000" text-anchor="middle" transform="rotate(0 4705 3523)" fill="#000000">GND</text><polyline points="4670, 2500 4700, 2450" stroke-width="10px" stroke="#000000"></polyline><polyline points="4700, 2550 4700, 2450" stroke-width="10px" stroke="#000000"></polyline><polyline points="4700, 2450 4730, 2500" stroke-width="10px" stroke="#000000"></polyline><text x="4715" y="2377" font-size="50.000000" text-anchor="middle" transform="rotate(0 4715 2377)" fill="#000000">+3.3V</text><polyline points="4700, 2550 4700, 2800" stroke-width="10px" stroke="#000000"></polyline><polyline points="4700, 2550 4700, 2800" stroke-width="10px" stroke="#000000"></polyline><polyline points="4700, 2800 4550, 2800" stroke-width="10px" stroke="#000000"></polyline><polyline points="4900, 2800 4700, 2800" stroke-width="10px" stroke="#000000"></polyline><circle r="10" cx="4700" cy="2800" fill="none" stroke-width="10px" stroke="#000000"></circle><polyline points="4550, 3100 4700, 3100" stroke-width="10px" stroke="#000000"></polyline><polyline points="4700, 3350 4700, 3100" stroke-width="10px" stroke="#FF0000"></polyline><polyline points="4700, 3350 4700, 3250" stroke-width="10px" stroke="#00FF00"></polyline><circle r="10" cx="4700" cy="3100" fill="none" stroke-width="10px" stroke="#000000"></circle><polyline points="4700, 3100 4900, 3100" stroke-width="10px" stroke="#000000"></polyline><polyline points="4820, 2680 4980, 2680" stroke-width="10px" stroke="#00FF00"></polyline><polyline points="4820, 2620 4980, 2620" stroke-width="10px" stroke="#00FF00"></polyline><polyline points="4900, 2610 4900, 2500" stroke-width="10px" stroke="#00FF00"></polyline><polyline points="4900, 2690 4900, 2800" stroke-width="10px" stroke="#00FF00"></polyline><text x="5015" y="2695" font-size="50.000000" text-anchor="start" transform="rotate(0 5015 2695)" fill="#00FF00">C</text><text x="5015" y="2604" font-size="50.000000" text-anchor="start" transform="rotate(0 5015 2604)" fill="#00FF00">C?</text><circle r="10" cx="4900" cy="2800" fill="none" stroke-width="10px" stroke="#00FF00"></circle><polyline points="4900, 2500 5100, 2500" stroke-width="10px" stroke="#00FF00"></polyline><polyline points="5100, 2500 5100, 3250" stroke-width="10px" stroke="#00FF00"></polyline><polyline points="5100, 3250 4700, 3250" stroke-width="10px" stroke="#00FF00"></polyline><circle r="10" cx="4700" cy="3250" fill="none" stroke-width="10px" stroke="#00FF00"></circle><polyline points="4700, 3250 4700, 3100" stroke-width="10px" stroke="#00FF00"></polyline></svg>